<svg xmlns="http://www.w3.org/2000/svg" height="1024" width="1024">
    <svg viewBox="123.57874 -127.579 1584.13257 1835.29004">
        <g d-rs="1" transform="matrix(0,1,-1,0,1705.711,-125.579)">
            <title>花环</title>
            <path
                d="M522.7 1364.38s-65.33-15.44-51.08-60.59 29.7-27.32 29.7-42.76 19-10.7 23.76-5.94 66.53-16.64 47.52 76l-9.5 14.25-10.7-2.34-5.94 7.12h-10.69z"
                fill="#000000"
            ></path>
            <path
                d="M532.21 1411.9s-25 47.52-53.46 48.7-53.46-7.12-52.27-16.63-13.07-24.94-10.69-29.7-2.38-52.27 14.21-53.45 34.45 4.75 38-2.38 13.07-14.26 22.57-8.32 32.07 14.26 32.07 14.26l4.76 17.82 1.18 10.69z"
                fill="#000000"
            ></path>
            <path
                d="M589.23 1419s29.7 23.75 16.63 59.39c0 0-41.58 11.88-42.76 23.76s-16.64 20.2-27.33 14.26-47.52-22.57-41.58-60.59c0 0 38-26.13 38-43.95l13.07 4.75h8.31l5.94 4.75 5.94-5.94 13.07 4.75z"
                fill="#000000"
            ></path>
            <path
                d="M610.61 1370.32s44-17.82 63 10.69 3.56 4.75 3.56 4.75 5.94 41.58 0 46.33-22.57 2.38-20.2 11.88-2.37 29.7-14.25 27.33-39.2 16.63-36.83 7.12-16.66-59.42-16.66-59.42l9.5-14.26 4.76-15.44 3.56-11.88z"
                fill="#000000"
            ></path>
            <path
                d="M572.6 1331.12s3.56-41.58 39.2-41.58l9.51 10.69 15.44-3.56 10.69 16.63 9.5 17.82-4.75 21.38-8.31 9.5-33.27 8.32-13.06-9.5-7.13-14.26-8.32 1.19-10.69-11.88z"
                fill="#000000"
            ></path>
            <g opacity=".19" fill="#fff">
                <path
                    d="M544.09 1366.76l-10.69 7.12 5.94 11.88 2.37 13.07 10.69 7.13h14.26l14.25-9.51 7.13 3.57 4.75-16.63 2.38-11.88-10.69-11.88-9.5-4.75H563.1l-9.51 2.37-11.88 2.38 2.38 7.13zM509.64 1375.07s-28.51-20.19-28.51-8.31-44 7.12-38 22.57-13.07 32.07-1.19 40.39 22.57 23.76 34.45 11.88 27.33-7.13 33.27-17.82 7.12-15.45 4.75-25-4.77-23.71-4.77-23.71zM525.08 1337.06s-45.14-13.07-30.89-25 7.13-40.39 20.2-35.64 25-11.88 32.07-1.19 10.7 0 14.26 16.63-2.38 22.57-5.94 32.08-22.57-2.38-23.76 5.94-5.94 7.18-5.94 7.18zM596.36 1334.68s5.94-33.26 19-28.51 22.57 16.63 22.57 16.63 0 10.69-4.75 20.2-21.39 5.94-21.39 5.94zM608.24 1407.15s7.13 58.21 20.19 51.08 9.51-28.51 16.64-27.32 4.75-11.88 14.25-15.45 13.07-25 0-22.57-16.63-25-23.76-19-36.83 14.25-27.32 33.26zM535.77 1432.09s-27.32 42.77-14.25 47.52 32.07-5.94 36.82 2.38 17.82 0 20.2-7.13 15.44 0 11.88-11.88-7.13-42.77-54.65-30.89z"
                ></path>
            </g>
            <path
                d="M283.92 1300.23s-38 42.77-22.57 54.65 20.2 22.57 27.33 19 15.44-7.12 23.75-7.12 22.58-3.57 24.95-14.26-11.88-68.9-13.07-64.15-32.07 23.76-40.39 11.88z"
                fill="#000000"
            ></path>
            <path
                d="M267.29 1215.88s-65.34 4.76-64.15 21.39-16.63 23.76-3.56 40.39 26.13 39.2 35.64 36.82 38 3.57 48.7-14.25-9.5-48.71-3.56-54.65-13.07-29.7-13.07-29.7z"
                fill="#000000"
            ></path>
            <path
                d="M307.68 1250.33s22.57 17.82 28.51 5.94 27.33-9.5 23.76-26.13-15.44-52.27-27.32-42.77-40.39 9.51-47.52 16.63-26.13 1.19-17.82 11.88-1.19 34.45 11.88 34.45zM325.5 1293.1s9.51-28.51 29.7-15.44 5.94 22.57 17.82 27.32 20.2-11.88 22.57 3.56-8.31 54.65-23.76 51.09-35.64-5.94-35.64-15.45-10.69-51.08-10.69-51.08z"
                fill="#000000"
            ></path>
            <path
                d="M343.32 1248s16.68-22.61 35.68-11.92 26.14 8.31 27.32 26.13-8.32 34.46-14.32 39.21-21.38 4.75-24.95-4.75-20.19-14.26-23.76-21.39.03-27.28.03-27.28z"
                fill="#000000"
            ></path>
            <g opacity=".19" fill="#fff">
                <path
                    d="M295.8 1258.65s-4.75 35.64 4.76 30.89 27.32-3.57 24.94-10.69-4.75-21.39-10.69-15.45-17.81-9.5-19.01-4.75zM255.41 1242s-45.14 9.5-34.45 23.76 10.69 34.45 22.57 30.89 27.33 14.25 28.51-1.19 7.13-34.45-2.37-33.27-5.94-22.55-14.26-20.19zM300.56 1230.14s-10.7-22.57 3.56-20.2 29.7-13.06 34.45 0 4.75 23.76-4.75 30.89-28.51-2.38-33.26-10.69zM287.49 1313.3s-15.45 48.7 3.56 42.76 39.2 2.38 33.26-14.25-4.75-39.21-11.88-32.08-24.94 3.57-24.94 3.57zM341 1295.48s15.44 60.58 23.76 48.7 34.45-24.94 15.44-28.51-39.2-30.88-39.2-20.19zM352.83 1263.4s28.51 20.2 33.26 8.32-9.51-33.27-13.07-25-21.38-5.94-21.38 4.75 1.19 11.93 1.19 11.93z"
                ></path>
            </g>
            <path
                d="M261.35 1198.06s-33.26 8.32-41.58-57c0-.06 41.58 4.73 41.58 57zM365.89 1221.82s-17.82-46.33 28.51-98.6c0 0 23.76 93.85-28.51 98.6zM306.49 1006.8s-17.81-61.8 14.26-84.34c0 0 17.82 62.96-14.26 84.34zM355.2 1051.94s15.45-66.52 65.34-80.78c0 0-9.54 62.96-65.34 80.78z"
                fill="#000000"
            ></path>
            <path d="M420.54 1040.06s-54.65-9.5-70.09 17.82c0 0 40.39 21.39 70.09-17.82zM104.54 923.64S57 932 66.53 989c0 0 65.33 0 38.01-65.36z" fill="#000000"></path>
            <path
                d="M0 926s53.46-43.95 97.41-8.32c0 .02-39.2 49.92-97.41 8.32zM261.35 839.3s23.76-24.95 67.72-20.2c0 0-14.26 51.09-67.72 20.2zM248.28 662.29S244.72 597 304.12 578c0 0-4.75 57-55.84 84.29zM205.52 592.2s-54.65-3.56-67.72-46.33c0 0 58.2 0 67.72 46.33zM229.28 591s-45.15-30.88-44-86.72c.04.01 63 42.78 44 86.72zM306.49 418.76s-35.63-21.38-27.32-74.84c0 0 42.77 38.01 27.32 74.84z"
                fill="#000000"
            ></path>
            <path d="M323.13 406.88s23.76-55.84-3.57-72.47c0 0-30.88 43.96 3.57 72.47zM363.52 372.43s15.44-33.26 70.09-26.14c0 0-33.27 42.77-70.09 26.14z" fill="#000000"></path>
            <path
                d="M451.43 399.75s-53.43 13.07-85.54-22.57c0 0 74.85-11.88 85.54 22.57zM343.32 298.77S335 278.58 331.44 281s-19-10.69-23.76-3.56-8.31 23.76 4.75 24.95 24.95-1.24 30.89-3.62zM424.1 225.12s7.13-29.7 16.64-23.76 22.57 2.38 16.63 11.88-29.7 15.44-33.27 11.88zM471.62 258.38s16.63-28.51 29.7-20.19 13.07 13.07 5.94 20.19-9.5 16.64-20.19 9.51a170.22 170.22 0 0 0-15.45-9.51zM545.28 172.85s21.38-33.26 34.45-27.32 10.69 14.25 2.37 17.82 9.51 4.75 0 9.5-36.82 0-36.82 0zM392 289.27s-21.38-24.95-15.45-66.53c.03 0 38.05 32.08 15.45 66.53zM222.15 484.1s-14.26-40.39-15.44-34.45-21.39 0-17.82 8.31-4.76 22.57 5.94 23.76 22.57 10.69 27.32 2.38zM236.41 498.35s-2.38-34.45 8.31-28.51 13.07 4.75 13.07 13.07 4.75 11.88-4.75 17.82-16.63-2.38-16.63-2.38zM329.07 594.58s26.13-29.7 33.26-21.39 11.88 10.7 7.13 17.82-15.45 9.51-23.76 10.7-16.63-7.13-16.63-7.13zM117.61 726.44s-15.45-32.07-19-22.57-27.32 3.56-20.19 11.88S82 737.13 92.66 736s24.95-9.56 24.95-9.56zM149.68 746.64s-5.94-32.08 2.38-26.14 20.19-4.75 21.38 4.75 16.63 2.38 9.51 11.88-33.27 9.51-33.27 9.51zM285.11 770.4s-8.31-34.4 1.19-28.51 16.63-9.51 19 1.18 13.06-1.18 8.31 9.51-28.5 17.82-28.5 17.82zM313.62 784.65s27.33-15.44 26.14-5.94 9.5 16.63 4.75 20.2-9.51 14.25-16.63 7.09-14.26-21.35-14.26-21.35z"
                fill="#000000"
            ></path>
            <path
                d="M160.38 819.1s-38-85.53-48.71-92.66M149.68 741.89l-13.06 21.38M285.11 770.4l-19.01 52.27M319.56 790.59l-46.33 7.13"
                fill="none"
                stroke="#000"
                stroke-miterlimit="10"
                stroke-width="3"
            ></path>
            <path
                d="M236.41 631.4s-5.94-45.14 3.56-51.08 14.25-21.38 17.82-29.7 14.25-22.57 13.07-32.07-13.07-54.65-4.76-61.78 33.27-38 33.27-38 43.95-39.2 43.95-45.14 22.57-27.33 20.2-34.45-11.88-23.76-13.07-29.7 1.19-9.51 1.19-9.51l14.25 26.14s16.63-15.45 19-23.76 9.5-17.82 9.5-17.82 26.14-29.7 26.14-39.2 3.56-20.2 3.56-20.2l3.57 22.57 42.77-29.7 36.83-30.88L550 172.85l-19 22.57-45.14 25-34.45 28.51-11.88 15.44 32.07-5.94-24.95 10.7-29.65 4.7L403.91 294l-10.69 20.2-9.51 14.25-15.44 30.89-11.88 26.16L341 398.56l-11.88 17.82-16.69 17.82-13.06 7.13-9.51 35.67-7.12 26.13 2.37 30.87-17.82 49.9-10.69 29.7-5.94 33.26-3.56 21.38-20.2 85.54-1.19 29.69-11.88-1.18-3.56-44 8.32-63z"
                fill="#000000"
            ></path>
            <path d="M291.05 624.28s30.89-29.7 46.33-34.45" fill="none" stroke="#000" stroke-miterlimit="10" stroke-width="3"></path>
            <path
                d="M154.44 915.33s-52.28 9.5-41.58 27.32 24.94 35.64 34.45 30.89 41.58 19 46.33-1.19-11.88-42.77-11.88-42.77zM175.82 847.61s-49.9-58.21-54.65-40.39-39.2 8.32-38 30.89-23.76 36.83-5.94 45.14S97.41 922.46 114 917.7s40.4-2.37 40.4-2.37l20.19-41.58z"
                fill="#000000"
            ></path>
            <path
                d="M177 842.86l-10.69-24.94s0-40.4 20.19-30.89 28.5-13.03 39.21-3.57 19 8.32 26.14 20.2 17.82 8.32 14.25 25-32.07 24.94-38 34.45-28.51 10.69-28.51 10.69l-14.26-9.5-7.13-3.57z"
                fill="#000000"
            ></path>
            <path d="M209.08 888s65.34 42.76 63 27.32 8.32-10.69 9.51-23.76 11.88-32.08 1.19-30.89-16.68-34.44-26.18-21.37-45.14 23.76-47.52 29.7 0 19 0 19z" fill="#000000"></path>
            <path
                d="M181.76 921.27s16.63 66.52 32.07 55.83 38 2.38 38-14.25 23.76-38 13.07-38-5.9-26.15-16.62-20.21-19-1.19-28.51 4.75-26.13 1.19-28.51 7.13-9.5 4.75-9.5 4.75zM286.3 1139.85s-76-14.25-39.2-74.84 22.57-22.57 28.51-19 32.07-8.31 40.39 1.19 17.82 11.88 22.57 23.76 7.13 21.39-3.56 35.64-48.71 33.25-48.71 33.25zM221 1078.08s-26.13-30.89-13.07-34.45a48.11 48.11 0 0 0 21.39-13.07l16.59 15.44-1.19 11.88s-20.19 22.58-15.44 35.64z"
                fill="#000000"
            ></path>
            <path
                d="M251.85 1027s-5.94-21.39 3.56-19 22.57-23.76 27.33-16.63 27.32 10.69 32.07 17.82 19-5.94 22.57 11.88-4.75 27.32 1.19 33.26 17.82 4.75 21.38 17.82-7.12 35.64-9.5 41.58-26.14 16.63-26.14 16.63 42.77-42.77 22.58-60.59-23.76-29.7-38-29.7-26.13 4.76-28.51-2.37-10.69-28.51-14.26-17.82-11.88 20.19-11.88 20.19zM365.89 926s-9.5-32.08 1.19-24.95 15.44-20.19 17.82-3.56-2.38 22.59-19.01 28.51zM174.63 1022.25s-29.7-21.39-27.32-8.32-14.26 27.32-1.19 25 28.51-16.68 28.51-16.68zM171.07 1038.88s-17.82 24.94-7.13 21.38 19 20.2 17.82 4.75a48.61 48.61 0 0 0-10.69-26.13z"
                fill="#000000"
            ></path>
            <path d="M326.69 956.91s39.2-24.95 40.39-38" fill="none" stroke="#000" stroke-miterlimit="10" stroke-width="3"></path>
            <path
                d="M218.59 974.73l13.06 16.63 7.13 16.63 9.5 5.94 7.13-5.94 3.57-11.88-9.51-8.32-3.56-20.19-9.5-3.57-17.82 10.7zM142.56 1138.67s-29.7-19-17.82-19 11.88-17.82 17.82-5.94 0 24.94 0 24.94zM104.54 1136.29s-26.13 15.44-16.63 19 10.69 24.94 20.19 15.44a81.82 81.82 0 0 0 14.26-19zM160.38 1143.42s-5.94 32.07 1.18 27.32 22.57-1.19 19-9.5-14.25-17.82-14.25-17.82z"
                fill="#000000"
            ></path>
            <path d="M122.36 1151.73s70.09-15.44 99.79 3.57M140.18 1126.79s19 10.69 24.95 23.76" fill="none" stroke="#000" stroke-miterlimit="10" stroke-width="3"></path>
            <path
                d="M276.8 1130.35s-9.51 20.2-1.19 21.38 4.75 13.07 10.69 19 13.07 26.14 13.07 26.14h26.13s-2.37-27.33-4.75-20.2-7.13-26.13-8.32-20.19-7.12-25-7.12-19-9.51-22.57-10.69-17.82-15.45 0-16.64 4.75a33.49 33.49 0 0 0-1.18 5.94zM403.91 1270.53s19 5.94 17.82 15.44 1.19 25 7.13 35.64 17.81 17.82 26.13 27.33a65.6 65.6 0 0 0 17.82 14.25l-21.38 8.32s-19 0-21.39-10.69-5.94-9.51-10.69-19-14.25-8.32-16.63-15.45-16.63-20.19-16.63-20.19l4.75-19zM633.19 1466.54s32.07 27.33 38 35.64 24.95-7.12 33.26 3.57 33.27 2.37 41.58 9.5 36.83 13.07 49.9 21.38 110.48-7.12 118.79 1.19 36.83 8.32 49.9 14.26 101-16.63 109.29-7.13 57-4.75 66.53 1.19 218.58-70.09 275.6-144.93c0 0-74.84 118.79-281.54 154.43 0 0-42.77 11.88-41.58 7.13s-21.39 3.56-21.39 3.56l-28.51-1.18s-33.26 21.38-34.45 13.06-19-1.19-20.19-7.12-48.71 4.75-45.15-4.76-39.2 16.63-35.63 4.76-34.46-4.76-34.46-4.76L771 1553.27s-34.45-3.57-47.52 13.06c0 0-10.69-7.12 1.19-14.25s26.13-15.45 26.13-15.45l-15.44-7.12s-32.07-16.64-41.58-8.32-26.13 8.32-24.95 0-7.12-11.88-15.44-7.13-27.32 14.26-26.13 4.75-1.19-14.25-1.19-21.38-10.69-22.57-10.69-22.57zM535.77 1214.7s-26.13-20.2-16.63-22.58 4.75-21.38 13.07-11.88 9.5 29.7 3.56 34.46zM584.48 1164.8s-26.14-28.51-14.26-27.32 15.45-19 20.2-7.13-2.42 29.7-5.94 34.45zM345.7 1401.21s-32.08 13.06-22.57 14.25 7.12 28.51 13.06 21.38 22.58 0 17.82-9.5-8.31-26.13-8.31-26.13zM434.8 1485.55s-19 28.51-10.7 26.14 15.45 21.38 16.64 11.88-5.94-38.02-5.94-38.02zM468.06 1489.12s1.19 32.07 5.94 26.13 26.13 7.13 19-4.75-21.38-30.89-24.94-21.38z"
                fill="#000000"
            ></path>
            <path
                d="M339.76 1407.15s45.14-41.58 77.22-27.33M532.21 1206.38s33.26 43.95 33.26 60.59M580.91 1152.92s-2.37 85.53 11.88 93.85M603.49 1199.25s-49.9 20.2-48.71 40.39M567.85 1283.6s54.64-49.9 55.83-71.28M617.74 1294.29s-5.94-51.08-14.25-66.53"
                fill="none"
                stroke="#000"
                stroke-miterlimit="10"
                stroke-width="3"
            ></path>
            <path
                d="M605.86 1192.12s10.69-28.51 11.88-19 15.45-3.57 9.51 9.5-21.39 9.5-21.39 9.5zM632 1208.76s1.19-26.14 8.31-17.82 19-8.32 14.26 4.75a79.17 79.17 0 0 1-13.07 22.57z"
                fill="#000000"
            ></path>
            <path d="M433.61 1501s23.76-33.27 48.7-42.77M474 1492.68s8.31-20.2 26.13-27.32" fill="none" stroke="#000" stroke-miterlimit="10" stroke-width="3"></path>
            <g opacity=".19" fill="#fff">
                <path
                    d="M172.25 883.25l14.26 22.58 17.82-9.51 2.38-17.82-9.51-9.5-11.88-4.75-10.69 9.5-7.13 9.5h4.75zM148.5 851.18s-53.46-4.75-42.77 7.13-15.44 5.94-3.57 21.38 16.64 22.57 25 20.19a75.34 75.34 0 0 1 17.82-2.37L158 882.07l11.88-22.58zM200.77 851.18s-23.76-49.9-10.7-46.33 23.76-13.07 29.7-2.38 16.64 4.75 17.82 14.26 5.94 9.5 3.57 17.82-21.39 16.63-26.16 20.19-14.23-3.56-14.23-3.56zM153.25 924.83s-30.89 23.76-21.39 24.95 16.64 19 20.2 15.44 23.76 7.13 26.13 0 1.19-24.94 1.19-24.94l-7.13-13.07zM206.71 930.77s20.19 35.64 28.51 25 33.26-22.57 22.57-23.76-7.13-21.38-16.63-17.82-32.08 2.38-32.08 2.38zM226.9 872.56s29.7-29.7 29.7-16.63 16.63 10.69 11.88 19 7.13 24.94-7.13 21.38-33.26-2.38-33.26-2.38l-4.75-11.87z"
                ></path>
            </g>
            <path
                d="M1385.7 291.49s62 25.73 40.7 68-33.7 22.2-36.18 37.45-20.47 7.5-24.4 2.05-68.33 5.74-34.7-82.67l11.66-12.55 10.18 4.06 7-6.08 10.56 1.71z"
                fill="#000000"
            ></path>
            <path
                d="M1384 243.06s32.25-42.9 60.58-39.49 51.62 15.61 48.92 24.8 8.9 26.72 5.79 31-6 52-22.65 50.48-33.24-10.22-37.9-3.76-15.19 12-23.62 4.59-29.37-19.22-29.37-19.22l-1.83-18.35.54-10.74z"
                fill="#000000"
            ></path>
            <path
                d="M1328.81 226.88s-25.5-28.22-6.89-61.3c0 0 42.95-5.05 46-16.59s19.65-17.26 29.25-9.69 43.28 29.91 31.32 66.48c0 0-41.71 19.69-44.57 37.28l-12.14-6.78-8.21-1.34-5.1-5.64-6.81 4.91-12.14-6.79z"
                fill="#000000"
            ></path>
            <path
                d="M1299.89 271.52s-46.25 10.54-60.44-20.65-2.75-5.27-2.75-5.27.81-42 7.43-45.73 22.66 1.28 21.84-8.48 7.11-28.93 18.46-24.68 41.36-10.13 37.49-1.13 6.89 61.3 6.89 61.3l-11.67 12.54-7.14 14.48-5.42 11.16z"
                fill="#000000"
            ></path>
            <path
                d="M1331.12 316.32s-10.19 40.46-45.37 34.75l-7.66-12.07-15.82 1-7.88-18.13-6.53-19.12 8.13-20.34 9.73-8.05 34.17-2.87 11.37 11.51 4.75 15.21 8.4.17 8.64 13.44z"
                fill="#000000"
            ></path>
            <g opacity=".19" fill="#fff">
                <path
                    d="M1364.98 285.71l11.69-5.32-3.95-12.67-.25-13.28-9.41-8.75-14.07-2.29-15.6 7.09-6.46-4.66-7.36 15.65-4.25 11.35 8.65 13.44 8.61 6.21 11.73 1.91 9.76-.82 12.11-.44-1.2-7.42zM1400.32 283s24.9 24.51 26.8 12.79 44.53 0 41.15-16.18 18-29.56 7.65-39.68-18.47-27.07-32.1-17.25-28.11 2.65-35.69 12.25-9.51 14.1-8.69 23.86.88 24.21.88 24.21zM1379 318.08s42.46 20.14 26.49 29.58-13.52 38.72-25.66 31.94-26.53 7.72-31.85-4-10.55-1.71-11.4-18.7 6-21.9 11-30.71 21.9 6 24.41-2 7.01-6.11 7.01-6.11zM1308.24 309s-11.2 31.88-23.34 25.09-19.61-20-19.61-20 1.72-10.55 7.93-19.17 22.06-2.43 22.06-2.43zM1308.14 235.55s2.3-58.6-11.74-53.66-14 26.62-20.8 24.3-6.59 11-16.55 13-16.9 22.53-3.62 22.28 12.41 27.29 20.4 22.57 38.64-8.2 32.31-28.49zM1383.67 222.56s33.83-37.83 21.7-44.62-32.62.72-36-8.25-17.59-2.86-21.08 3.79-15.24-2.48-13.63 9.82.2 43.36 49.01 39.26z"
                ></path>
            </g>
            <path
                d="M1611.1 393.12s44.38-36.11 31-50.31-16.31-25.52-23.92-23.15-16.38 4.56-24.59 3.23-22.85-.11-26.91 10.06.67 69.92 2.6 65.42 35.51-18.31 41.82-5.25z"
                fill="#000000"
            ></path>
            <path
                d="M1614 479.05s65.25 5.79 66.75-10.82 20.23-20.78 10-39.29-19.51-42.89-29.27-42.07-37-9.62-50.36 6.25 1.56 49.61-5.26 54.51 8.14 31.42 8.14 31.42z"
                fill="#000000"
            ></path>
            <path
                d="M1579.64 438.56s-19.42-21.21-27.19-10.44-28.49 5-27.65 22 6.86 54.07 20.11 46.59 41.39-2.9 49.57-8.79 26 3 19.5-8.86 6.7-33.82-6.2-35.91zM1568.91 393.49s-14 26.62-31.79 10.48-2.24-23.24-13.2-29.83-21.84 8.48-21.71-7.14 17-52.61 31.65-46.61 34.22 11.58 32.7 21 2.35 52.1 2.35 52.1z"
                fill="#000000"
            ></path>
            <path
                d="M1544.08 435.19s-20 19.61-37.08 6-24.47-12.4-22.78-30.18 13.74-32.67 20.36-36.4 21.87-1.26 23.86 8.69 17.65 17.31 20 24.92-4.36 26.97-4.36 26.97z"
                fill="#000000"
            ></path>
            <g opacity=".19" fill="#fff">
                <path
                    d="M1592.7 432.26s10.41-34.42.26-31.25-27.54-.87-26.34 6.55 1.26 21.87 8.08 17 16.06 12.2 18 7.7zM1629.9 455.16s46.08-2.14 37.81-17.93-5-35.72-17.32-34.11-24.68-18.45-28.33-3.4-12.56 32.86-3 33.21 2.25 23.24 10.84 22.23zM1583.43 459.64s6.93 24-6.76 19.36-31.41 8.13-34-5.53-.88-24.21 9.65-29.72 27.76 6.92 31.11 15.89zM1609.67 379.65s23.06-45.59 3.35-42.78-38.31-8.64-35.12 8.73-1.6 39.46 6.58 33.57 25.19.48 25.19.48zM1554.05 388.67s-5.52-62.28-15.64-51.89-38 19.09-19.81 25.66 33.73 36.78 35.45 26.23zM1537.18 418.42s-24.9-24.51-31.5-13.55 4 34.36 8.89 26.72 20.16 9.3 21.87-1.26.74-11.91.74-11.91z"
                ></path>
            </g>
            <path
                d="M1617 497.59s34.17-2.87 31.89 62.95c-.02 0-40.3-11.36-31.89-62.95zM1517.61 457.36s10.15 48.59-44 92.75c.03 0-8.36-96.45 44-92.75zM1541.73 679.13s7.68 63.83-27.6 81c0-.04-7.49-65.04 27.6-81zM1500.9 626.75s-25.9 63.19-77.45 69.25c0 0 19.48-60.62 77.45-69.25z"
                fill="#000000"
            ></path>
            <path d="M1434.5 628s52.42 18.15 72-6.35c.04 0-36.39-27.58-72 6.35zM1727.73 793.61s48.23-.58 48-58.39c0 0-64.49-10.48-48 58.39z" fill="#000000"></path>
            <path
                d="M1831.29 808s-59.81 34.81-97.48-7.42c0 .04 46.7-42.92 97.48 7.42zM1559.41 851.7s-27.45 20.82-70.07 9.07c0 0 22.26-48.13 70.07-9.07zM1543.91 1028.51s-7 65.07-68.65 74.3c0 0 13.84-55.52 68.65-74.3zM1574.87 1104.56s53.37 12.28 59.41 56.59c0 0-57.46-9.34-59.41-56.59zM1551.23 1101.92s39.6 37.73 29.47 92.65c0 0-55.28-52.32-29.47-92.65zM1447.38 1259.55s31.74 26.83 15 78.26c-.04 0-36.16-44.39-15-78.26z"
                fill="#000000"
            ></path>
            <path d="M1429.05 1268.61s-32.41 51.3-8.11 72.1c0 0 37.54-38.43 8.11-72.1zM1383.66 1296.13s-20.58 30.36-73.38 14.55c0 0 39.72-36.87 73.38-14.55z" fill="#000000"></path>
            <path
                d="M1301.27 1255.06s54.86-4.32 80.81 36c0 0-75.78-.28-80.81-36zM1391.77 1372.07s5 21.27 8.87 19.5 17 13.6 22.88 7.33 12-22.12-.69-25.39-24.83-2.83-31.06-1.44zM1300.22 1431.81s-11.8 28.17-20.23 20.78-21.9-6-14.51-14.39 31.79-10.48 34.74-6.39zM1258.65 1391.35s-21 25.47-32.55 15.17-10.8-15-2.62-20.89 12-14.89 21.46-6.14a168.34 168.34 0 0 0 13.71 11.86zM1172.23 1464s-26.44 29.4-38.39 21.44-8.26-15.79.52-18-8.62-6.22 1.52-9.38 36.35 5.94 36.35 5.94zM1342.17 1373.64s17.11 28 4.57 68.14c0 0-32.37-37.78-4.57-68.14zM1541.11 1208.59s7.59 42.16 9.72 36.49 21.1 3.43 18.92-5.35 8.31-21.52-2-24.41-20.61-14.17-26.64-6.73zM1529.33 1192.24s-3.18 34.38-12.78 26.8-12.14-6.78-10.81-15-2.78-12.49 7.55-16.83 16.04 5.03 16.04 5.03zM1453.31 1082.39s-30.56 25.12-36.26 15.77-10-12.46-4.18-18.73 16.77-6.91 25.17-6.75 15.27 9.71 15.27 9.71zM1683.19 986.16s10.09 34.14 15.13 25.33 27.55.87 21.84-8.48-.08-21.68-10.83-22.22-26.14 5.37-26.14 5.37zM1654.77 961.08s.71 32.62-6.54 25.42-20.7 1.45-20.35-8.12-16-5-7.47-13.25 34.36-4.05 34.36-4.05zM1524.91 915.9s2.68 35.34-5.75 28-17.94 6.71-18.57-4.22-13.09-.92-6.69-10.72 31.01-13.06 31.01-13.06zM1499.05 897.26s-29.45 10.85-26.75 1.66-6.71-17.94-1.45-20.69 11.67-12.55 17.56-4.37 10.64 23.4 10.64 23.4z"
                fill="#000000"
            ></path>
            <path
                d="M1655.84 887.84s23.8 90.53 33.21 99.28M1654 965.77l16.33-19.01M1524.91 915.9l27.14-48.54M1494.14 890.44l46.88.4"
                fill="none"
                stroke="#000"
                stroke-miterlimit="10"
                stroke-width="3"
            ></path>
            <path
                d="M1550.68 1060.91s-1.38 45.51-11.72 49.85-17.5 18.81-22.35 26.45-17.69 20-18 29.56 4.13 56-5.22 61.74-38.93 32.18-38.93 32.18-49.67 31.65-50.63 37.51-26.66 23.35-25.46 30.76 7.91 25.36 8.13 31.41-2.69 9.19-2.69 9.19l-9.88-28.08s-18.9 12.58-22.58 20.4-12.24 16.07-12.24 16.07-30.56 25.12-32.08 34.5-6.76 19.36-6.76 19.36l.1-22.85-47 22.45L1212 1456l-44.5 7.21 22.38-19.23 48.56-17.38 38.58-22.62 14.21-13.33-32.62.71 26.34-6.55 30.08.08 16.14-17.84 13.79-18.22 11.67-12.54 20.2-28 15.92-23.89 17.34-10.42 14.59-15.69 19.27-14.92 14-4.93 15.1-33.66 11.23-24.65 2.61-30.87 25.6-46.39 15.32-27.59 11.2-31.88 6.94-20.54 33.66-81.18 5.94-29.13 11.54 3.08-3.54 44-18.31 60.81z"
                fill="#000000"
            ></path>
            <path d="M1495.6 1059.17s-35.26 24.36-51.26 26.57" fill="none" stroke="#000" stroke-miterlimit="10" stroke-width="3"></path>
            <path
                d="M1677.14 793.82s53.12-1 45.43-20.3-18.91-39.18-29-36-38-25.43-45.92-6.26 4.86 44.12 4.86 44.12zM1645.17 857.22s39.91 65.46 47.46 48.64 40-1.92 42.48-24.39 29.36-32.54 13.1-43.6-13.64-41.94-30.82-39.92-40.25-4.13-40.25-4.13l-26.6 37.8z"
                fill="#000000"
            ></path>
            <path
                d="M1643.24 861.72l6.55 26.34s-6.48 39.87-24.89 27.25-30.24 8.32-39.27-2.78-17.43-11.25-22.55-24.12-16.26-11.07-10.07-26.92 35.66-19.47 43-27.9 29.86-6 29.86-6l12.54 11.67 6.46 4.66z"
                fill="#000000"
            ></path>
            <path
                d="M1618.82 812s-57.63-52.7-57.76-37.08-9.92 9.22-13.19 21.93-16.88 29.75-6.13 30.3 10.89 36.67 22.36 25.3 48.37-16.21 51.67-21.69 3.05-18.76 3.05-18.76z"
                fill="#000000"
            ></path>
            <path
                d="M1651.13 783.57s-5.74-68.33-22.7-60.26-37.14-8.44-39.81 8-29.55 33.71-19 35.43 1.67 26.75 13.18 22.6 18.57 4.22 28.9-.12 26 3 29.29-2.46 10.14-3.19 10.14-3.19zM1583 551s72.75 26.27 26.68 80.16-25.9 18.66-31.19 14.19-33 3.06-39.68-7.65-15.68-14.59-18.46-27.08-3.61-22.25 9.23-34.6S1583 551 1583 551zM1637.6 622.5s20.84 34.68 7.37 36.1a48.05 48.05 0 0 0-23.21 9.47l-13.94-17.92 3.08-11.53s23.56-19 21-32.7z"
                fill="#000000"
            ></path>
            <path
                d="M1598.91 668s2.43 22.06-6.57 18.19-26.09 19.83-29.63 12-25.26-14.93-28.8-22.73-19.72 2.81-20.38-15.35 9.08-26.21 4.17-33-16.83-7.55-18.25-21 12.76-34 16-39.52 28.55-12.27 28.55-12.27-49.08 35.35-32 56.18 18.68 33.13 32.76 35.41 26.55-.49 27.76 6.92 6 29.86 11.21 19.88 15-18 15-18zM1470.14 749.33s4.24 33.19-5.17 24.44-18.49 17.45-18.16.65 5.96-21.89 23.33-25.09zM1674.37 685s25.88 25.88 25.63 12.6 18.46-24.69 5.18-24.44-30.81 11.84-30.81 11.84zM1680.55 669.2s21.59-21.77 10.47-20-15.52-23-16.83-7.55a48.65 48.65 0 0 0 6.36 27.55z"
                fill="#000000"
            ></path>
            <path d="M1513.79 725.14s-42.69 18.33-46 31" fill="none" stroke="#000" stroke-miterlimit="10" stroke-width="3"></path>
            <path
                d="M1623.36 724.89l-10.23-18.51-4.37-17.56-8.43-7.39-7.99 4.72-5.42 11.16 8.05 9.73.27 20.5 8.81 5.05 19.31-7.7zM1724.71 575.28s26.26 23.53 14.54 21.62-14.59 15.68-18.55 3 4.01-24.62 4.01-24.62zM1761.85 583.72s28.27-11.05 19.46-16.09-6.55-26.34-17.45-18.48a81.76 81.76 0 0 0-17.12 16.47zM1707.88 567.73s11-30.71 3.21-27.16-22.47-2.45-20.28 6.33 11.19 19.88 11.19 19.88z"
                fill="#000000"
            ></path>
            <path d="M1746.74 565.62s-71.66 4-97.93-19.53M1725.15 587.39s-17.05-13.61-20.82-27.46" fill="none" stroke="#000" stroke-miterlimit="10" stroke-width="3"></path>
            <path
                d="M1590.87 562s12.62-18.41 4.61-20.92-2.6-13.66-7.51-20.48-8.7-27.89-8.7-27.89l-25.8-4.19s-2 27.35 1.45 20.69 2.84 26.94 5 21.27 3 25.77 4 19.91 5.76 23.8 7.7 19.3 15.24 2.48 17.18-2a33.44 33.44 0 0 0 2.07-5.69zM1487.9 403.19s-17.81-8.92-15.11-18.11 2.83-24.81-1.32-36.32-14.73-20.45-21.41-31.16a65.38 65.38 0 0 0-15.3-16.93l22.44-4.78s18.76 3.05 19.39 14 4.34 10.33 7.5 20.47 12.74 10.5 13.94 17.92 13.18 22.6 13.18 22.6l-7.74 18zM1293.05 172.92s-27.28-32.11-31.81-41.28-25.76 3-32.26-8.85-32.45-7.68-39.51-16.05-34.26-18.81-45.82-29.12-110.19-10.69-117.07-20.23-35-14.12-47-22.08-102.33.22-109-10.5-57-4.46-65.47-11.85-227 34.11-295.29 98.83c0 0 92.93-105.24 302.68-107.25 0 0 44.12-4.87 42.18-.37s21.68-.08 21.68-.08l28 5.74s36.26-15.76 36.1-7.37S959 6.69 959.22 12.74s48.84 3.12 43.8 11.93 41.36-10.12 35.94 1 33.24 10.22 33.24 10.22l98.74 29.29s33.44 9.05 49-5.27c0 0 9.41 8.75-3.46 13.88s-28.27 11.05-28.27 11.05l14.1 9.51s29 21.56 39.7 14.88 27.14-4 24.63 4 5.13 12.87 14.1 9.52 29.25-9.69 26.56-.5-1.12 14.26-2.26 21.3 6.93 24 6.93 24zM1348.79 437.14s22.55 24.13 12.79 24.95-8.12 20.34-14.8 9.62-4.62-30.83 2.01-34.57zM1292.7 478.57s21.23 32.34 9.69 29.26-18.29 16.28-21.08 3.79 7.11-28.93 11.39-33.05zM1566.32 283.54s33.76-7.75 24.57-10.45-2.46-29.28-9.47-23.2-22.27-3.62-19.11 6.52 4.01 27.13 4.01 27.13zM1491.92 186s23.33-25.09 14.74-24.08-11.81-23.58-14.51-14.39-.23 38.47-.23 38.47zM1459.66 177.14s4-31.85-1.67-26.75-24.66-11.23-19.53 1.64 16.15 33.97 21.2 25.11z"
                fill="#000000"
            ></path>
            <path
                d="M1573.14 278.63s-51.23 33.8-80.6 14.58M1351 445.92s-25.78-48.72-23.11-65.14M1294.32 490.87s16.07-84.05 3.33-94.54M1279.47 441.52s52.53-11.93 54.53-32.06M1328.18 364s-61.94 40.48-66.55 61.4M1280.65 345.42s-2.33 51.38 3.4 67.95"
                fill="none"
                stroke="#000"
                stroke-miterlimit="10"
                stroke-width="3"
            ></path>
            <path
                d="M1276 448.17s-15.13 26.43-14.77 16.86-15.82 1-7.86-10.91 22.63-5.95 22.63-5.95zM1252.85 427.56s-5.36 25.61-11.06 16.25-20.1 5.16-13.31-7a79.25 79.25 0 0 1 16.52-20.15z"
                fill="#000000"
            ></path>
            <path d="M1495.57 170.94s-28.79 29-54.94 34.4M1454.36 172.67s-11.44 18.6-30.18 22.77" fill="none" stroke="#000" stroke-miterlimit="10" stroke-width="3"></path>
            <g opacity=".19" fill="#fff">
                <path
                    d="M1654.41 822.62l-10.45-24.57-19.11 6.52-5.21 17.21 7.86 10.9 10.96 6.6 12.08-7.66 8.56-8.24-4.69-.76zM1672.71 858.09s52 13.27 43.36-.18 16.2-3.38 7-20.53-12.8-25-21.38-23.94a75.3 75.3 0 0 1-18-.51l-15.38 13.15-15.35 20.37zM1621.12 849.7s15.45 53.06 3.12 47.45-25.55 9.08-29.7-2.42-15.65-7.36-15.3-16.93-4.33-10.34-.66-18.16 23.78-13 29-15.74 13.54 5.8 13.54 5.8zM1679.84 784.63s34.3-18.5 25.11-21.2S1691.59 742 1687.5 745s-22.31-10.85-25.8-4.19-5.18 24.43-5.18 24.43l4.94 14zM1628 770.18s-14.22-38.41-24.14-29.19-36.45 16.94-26.09 19.83 3.6 22.25 13.56 20.25 32 2.8 32 2.8zM1598.76 824.4s-34.08 24.55-32 11.65-14.7-13.22-8.67-20.67-3-25.76 10.46-20 32.45 7.72 32.45 7.72l2.79 12.49z"
                ></path>
            </g>
        </g>
    </svg>
    <g transform="translate(250,250)">
        <g transform="scale(6.5)">
            <g>
                <path
                    d="M28.96-23.6L46.4-23.6 46.4-32.64 29.44-32.64 29.44-35.04 46.4-35.04 46.4-44 25.92-44 25.92-46.4 46.4-46.4 46.4-55.36 29.44-55.36 29.44-57.76 46.4-57.76 46.4-65.84 48.96-65.84 48.96-57.76 66.64-57.76 66.64-46.4 75.12-46.4 75.12-44 66.64-44 66.64-32.64 48.96-32.64 48.96-23.6 69.44-23.6 69.44-21.12 48.96-21.12 48.96-12.08 72.72-12.08 72.72-9.68 48.96-9.68 48.96 0.48 46.4 0.48 46.4-9.68 24.48-9.68 24.48-12.08 46.4-12.08 46.4-21.12 28.96-21.12 28.96-23.6ZM3.44 8.96L1.36 7.04Q5.12 3.52 8.08-0.08 11.04-3.68 13.12-7.52L13.12-7.52Q7.84-14.64 4.88-26.24L4.88-26.24 7.2-26.96Q9.92-16.4 14.48-9.92L14.48-9.92 14.64-10.32Q19.12-19.36 21.36-32.8L21.36-32.8 5.76-32.8 5.76-35.52Q10.08-40.08 14-45.16 17.92-50.24 21.52-55.6L21.52-55.6 3.92-55.6 3.92-58.16 24.48-58.16 24.48-55.6Q17.36-44.56 8.96-35.36L8.96-35.36 23.92-35.36 23.92-32.96Q22.72-25.68 21-19.8 19.28-13.92 17.04-9.28L17.04-9.28 16.24-7.68Q19.36-4.08 22.8-2.24L22.8-2.24Q27.68 0.4 34.24 1.72 40.8 3.04 49.12 3.28L49.12 3.28Q55.04 3.44 61.44 3.32 67.84 3.2 74.96 2.64L74.96 2.64 74.64 5.52Q67.36 5.92 61.16 6 54.96 6.08 49.04 5.84L49.04 5.84Q40.4 5.52 33.8 4.28 27.2 3.04 21.68 0.08L21.68 0.08Q18-1.84 14.88-5.28L14.88-5.28Q12.8-1.68 9.92 1.84 7.04 5.36 3.44 8.96L3.44 8.96ZM64.16-55.36L48.96-55.36 48.96-46.4 64.16-46.4 64.16-55.36ZM48.96-35.04L64.16-35.04 64.16-44 48.96-44 48.96-35.04Z"
                    transform="translate(-1.3600000143051147, 65.83999633789062)"
                ></path>
            </g>
        </g>
    </g>
</svg>
